<svg xmlns="http://www.w3.org/2000/svg" xmlns:xlink="http://www.w3.org/1999/xlink" width="501" height="501" viewBox="0 0 501 501"><defs><style>.cls-1{fill:url(#linear-gradient);}.cls-2{fill:url(#linear-gradient-2);}.cls-3{fill:url(#linear-gradient-3);}.cls-4{fill:url(#linear-gradient-4);}.cls-5{fill:#dac0d2;}.cls-6{fill:url(#linear-gradient-5);}.cls-7{fill:url(#linear-gradient-6);}.cls-8{fill:#bc62a1;}.cls-9{fill:url(#linear-gradient-7);}.cls-10{fill:url(#linear-gradient-8);}.cls-11{fill:url(#linear-gradient-9);}.cls-12{fill:url(#linear-gradient-10);}.cls-13{fill:url(#linear-gradient-11);}.cls-14{fill:url(#linear-gradient-12);}.cls-15{fill:url(#linear-gradient-13);}.cls-16{fill:url(#linear-gradient-14);}.cls-17{fill:url(#linear-gradient-15);}.cls-18{fill:url(#linear-gradient-16);}.cls-19{fill:url(#linear-gradient-17);}.cls-20{fill:url(#linear-gradient-18);}.cls-21{fill:url(#linear-gradient-19);}.cls-22{fill:url(#linear-gradient-20);}.cls-23{fill:url(#linear-gradient-21);}.cls-24{fill:url(#linear-gradient-22);}.cls-25{fill:url(#linear-gradient-23);}.cls-26{fill:url(#linear-gradient-24);}.cls-27{fill:url(#linear-gradient-25);}.cls-28{fill:url(#linear-gradient-26);}.cls-29{fill:#231f20;opacity:0.55;}.cls-30{fill:#fff;}.cls-31{fill:url(#linear-gradient-27);}.cls-32{fill:#ffc4e6;}.cls-33{fill:url(#linear-gradient-28);}.cls-34{fill:url(#linear-gradient-29);}.cls-35{fill:url(#linear-gradient-30);}.cls-36{fill:url(#linear-gradient-31);}.cls-37{fill:url(#linear-gradient-32);}.cls-38,.cls-40{opacity:0;}.cls-39,.cls-40{fill:none;stroke-miterlimit:10;}.cls-39{stroke:red;stroke-width:0.25px;}.cls-40{stroke:#231f20;}.cls-41{opacity:0.25;}.cls-42{fill:#e5bdd3;}</style><linearGradient id="linear-gradient" x1="86.93" y1="147.96" x2="418.26" y2="337.3" gradientUnits="userSpaceOnUse"><stop offset="0" stop-color="#d03c9e"/><stop offset="1" stop-color="#d03c72"/></linearGradient><linearGradient id="linear-gradient-2" x1="32.65" y1="242.95" x2="363.98" y2="432.28" xlink:href="#linear-gradient"/><linearGradient id="linear-gradient-3" x1="176.91" y1="105.42" x2="415.58" y2="418.09" gradientUnits="userSpaceOnUse"><stop offset="0" stop-color="#e895ce"/><stop offset="1" stop-color="#e895b7"/></linearGradient><linearGradient id="linear-gradient-4" x1="49.15" y1="202.95" x2="287.81" y2="515.62" xlink:href="#linear-gradient-3"/><linearGradient id="linear-gradient-5" x1="174.53" y1="113.86" x2="453.19" y2="409.19" gradientUnits="userSpaceOnUse"><stop offset="0" stop-color="#cf0782"/><stop offset="1" stop-color="#cf0739"/></linearGradient><linearGradient id="linear-gradient-6" x1="53.97" y1="227.62" x2="332.63" y2="522.95" xlink:href="#linear-gradient-5"/><linearGradient id="linear-gradient-7" x1="127.31" y1="172.85" x2="372.65" y2="412.18" gradientUnits="userSpaceOnUse"><stop offset="0" stop-color="#5d1144"/><stop offset="1" stop-color="#5e1134"/></linearGradient><linearGradient id="linear-gradient-8" x1="243.29" y1="53.96" x2="488.62" y2="293.3" xlink:href="#linear-gradient-7"/><linearGradient id="linear-gradient-9" x1="30.15" y1="272.45" x2="275.49" y2="511.78" xlink:href="#linear-gradient-7"/><linearGradient id="linear-gradient-10" x1="128.69" y1="171.43" x2="374.03" y2="410.77" xlink:href="#linear-gradient-7"/><linearGradient id="linear-gradient-11" x1="132.09" y1="171.51" x2="371.42" y2="428.84" gradientUnits="userSpaceOnUse"><stop offset="0" stop-color="#840f5b"/><stop offset="1" stop-color="#840f3b"/></linearGradient><linearGradient id="linear-gradient-12" x1="245.16" y1="66.34" x2="484.49" y2="323.68" xlink:href="#linear-gradient-11"/><linearGradient id="linear-gradient-13" x1="25.25" y1="270.87" x2="264.58" y2="528.2" xlink:href="#linear-gradient-11"/><linearGradient id="linear-gradient-14" x1="133.69" y1="170.02" x2="373.02" y2="427.35" xlink:href="#linear-gradient-11"/><linearGradient id="linear-gradient-15" x1="127.31" y1="115.85" x2="372.65" y2="355.18" xlink:href="#linear-gradient-7"/><linearGradient id="linear-gradient-16" x1="30.15" y1="215.45" x2="275.49" y2="454.78" xlink:href="#linear-gradient-7"/><linearGradient id="linear-gradient-17" x1="132.09" y1="114.51" x2="371.42" y2="371.84" xlink:href="#linear-gradient-11"/><linearGradient id="linear-gradient-18" x1="25.25" y1="213.87" x2="264.58" y2="471.2" xlink:href="#linear-gradient-11"/><linearGradient id="linear-gradient-19" x1="127.31" y1="58.85" x2="372.65" y2="298.18" xlink:href="#linear-gradient-7"/><linearGradient id="linear-gradient-20" x1="30.15" y1="158.45" x2="275.49" y2="397.78" xlink:href="#linear-gradient-7"/><linearGradient id="linear-gradient-21" x1="132.09" y1="57.51" x2="371.42" y2="314.84" xlink:href="#linear-gradient-11"/><linearGradient id="linear-gradient-22" x1="25.25" y1="156.87" x2="264.58" y2="414.2" xlink:href="#linear-gradient-11"/><linearGradient id="linear-gradient-23" x1="127.31" y1="2.85" x2="372.65" y2="242.18" xlink:href="#linear-gradient-7"/><linearGradient id="linear-gradient-24" x1="30.15" y1="102.45" x2="275.49" y2="341.78" xlink:href="#linear-gradient-7"/><linearGradient id="linear-gradient-25" x1="132.09" y1="1.51" x2="371.42" y2="258.84" xlink:href="#linear-gradient-11"/><linearGradient id="linear-gradient-26" x1="25.25" y1="100.87" x2="264.58" y2="358.2" xlink:href="#linear-gradient-11"/><linearGradient id="linear-gradient-27" x1="189.93" y1="129.13" x2="322.6" y2="461.13" gradientUnits="userSpaceOnUse"><stop offset="0" stop-color="#df1893"/><stop offset="1" stop-color="#de1857"/></linearGradient><linearGradient id="linear-gradient-28" x1="244.05" y1="146.15" x2="328.72" y2="406.82" gradientUnits="userSpaceOnUse"><stop offset="0" stop-color="#f099d0"/><stop offset="0.99" stop-color="#f099bf"/></linearGradient><linearGradient id="linear-gradient-29" x1="180.52" y1="166.79" x2="265.18" y2="427.46" xlink:href="#linear-gradient-28"/><linearGradient id="linear-gradient-30" x1="180.52" y1="110.79" x2="265.18" y2="371.46" xlink:href="#linear-gradient-28"/><linearGradient id="linear-gradient-31" x1="180.52" y1="52.79" x2="265.18" y2="313.46" xlink:href="#linear-gradient-28"/><linearGradient id="linear-gradient-32" x1="180.52" y1="-3.21" x2="265.18" y2="257.46" xlink:href="#linear-gradient-28"/></defs><title>champion1-hd</title><g id="Layer_2" data-name="Layer 2"><g id="Layer_49" data-name="Layer 49"><path class="cls-1" d="M318.62,420.67a6.8,6.8,0,0,1-2.92-.66,7.52,7.52,0,0,1-4-7.05V365a34.41,34.41,0,0,1,1.58-9.56l48.38-141.68a11.53,11.53,0,0,1,10.5-7.51h61.54a9.51,9.51,0,0,1,9.5,9.5V316.33a15,15,0,0,1-5.18,10.8L323.73,418.75A8.2,8.2,0,0,1,318.62,420.67ZM372,217.4,323.66,359a24,24,0,0,0-1,6V405.5l108.44-87a4.52,4.52,0,0,0,1.06-2.21V217.21H372.26A1.2,1.2,0,0,0,372,217.4Z"/><path class="cls-2" d="M182.37,420.67a8.17,8.17,0,0,1-5.1-1.92L63,327.13a15,15,0,0,1-5.18-10.8V215.71a9.51,9.51,0,0,1,9.5-9.5h61.54a11.56,11.56,0,0,1,10.5,7.51L187.74,355.4a34.12,34.12,0,0,1,1.59,9.56v48a7.51,7.51,0,0,1-4,7.05A6.77,6.77,0,0,1,182.37,420.67ZM68.83,217.21v99.12a4.42,4.42,0,0,0,1.06,2.22L178.33,405.5V365a24,24,0,0,0-1-6L129,217.4a1,1,0,0,0-.27-.19Z"/><path class="cls-3" d="M291.62,484.67a6.74,6.74,0,0,1-2.92-.66,7.51,7.51,0,0,1-4-7.05V429a36,36,0,0,1,1.5-9.5l75.49-232.65a11.42,11.42,0,0,1,10.47-7.6h34.54a9.51,9.51,0,0,1,9.5,9.5V380.33a15,15,0,0,1-5.18,10.8L296.72,482.75A8.19,8.19,0,0,1,291.62,484.67Zm80.45-294.32-75.44,232.5a24.81,24.81,0,0,0-1,6.11V469.5l108.44-87a4.44,4.44,0,0,0,1.06-2.21V190.21H372.27A.72.72,0,0,0,372.07,190.35Z"/><path class="cls-4" d="M209.36,484.67a8.19,8.19,0,0,1-5.1-1.92L90,391.13a15,15,0,0,1-5.18-10.8V188.71a9.51,9.51,0,0,1,9.5-9.5h34.54a11.42,11.42,0,0,1,10.47,7.61l75.49,232.64a36,36,0,0,1,1.5,9.5v48a7.51,7.51,0,0,1-4,7.05A6.74,6.74,0,0,1,209.36,484.67ZM95.82,190.21V380.33a4.44,4.44,0,0,0,1.07,2.22L205.32,469.5V429a24.81,24.81,0,0,0-1-6.11l-75.44-232.5a.72.72,0,0,0-.2-.14Z"/><path class="cls-5" d="M384.15,166.31H116.85a16.64,16.64,0,0,1-10.72-4.44l-19.5-19.51a9.49,9.49,0,0,1,0-13.43l19.53-19.53A16.64,16.64,0,0,1,116.87,105H250.5v11H116.87a6,6,0,0,0-2.94,1.22L95.46,135.65l18.45,18.44a6.09,6.09,0,0,0,2.94,1.22h267.3a6.09,6.09,0,0,0,2.94-1.22l18.45-18.44-18.48-18.47a6,6,0,0,0-2.93-1.22H250.5V105H384.13a16.64,16.64,0,0,1,10.71,4.44l19.53,19.53a9.49,9.49,0,0,1,0,13.43l-19.5,19.51A16.64,16.64,0,0,1,384.15,166.31Z"/><polygon class="cls-6" points="330 175.06 330 419.13 316.71 429.72 388.13 466.63 388.13 175.06 330 175.06"/><polygon class="cls-7" points="171 175.06 112.87 175.06 112.87 466.63 184.28 429.72 171 419.13 171 175.06"/><rect class="cls-8" x="112.88" y="142.25" width="58.13" height="32.81"/><rect class="cls-8" x="330" y="142.25" width="58.13" height="32.81"/><polygon class="cls-9" points="330.42 383.21 370.25 404.88 370.25 397.63 330.42 375.96 330.42 383.21"/><polygon class="cls-10" points="364.6 175.06 370.25 178.13 370.25 175.06 364.6 175.06"/><polygon class="cls-11" points="131.16 404.88 171 383.21 171 375.96 131.16 397.63 131.16 404.88"/><polygon class="cls-12" points="131.16 175.06 131.16 178.13 136.81 175.06 131.16 175.06"/><polygon class="cls-13" points="330.42 407.46 370.25 429.13 370.25 404.88 330.42 383.21 330.42 407.46"/><polygon class="cls-14" points="364.6 175.06 330.42 175.06 330.42 180.72 370.25 202.38 370.25 178.13 364.6 175.06"/><polygon class="cls-15" points="131.17 429.13 171 407.46 171 383.21 131.17 404.88 131.17 429.13"/><polygon class="cls-16" points="131.17 178.13 131.17 202.38 171 180.72 171 175.06 136.82 175.06 131.17 178.13"/><polygon class="cls-17" points="330.42 326.21 370.25 347.88 370.25 340.63 330.42 318.96 330.42 326.21"/><polygon class="cls-18" points="131.16 347.88 171 326.21 171 318.96 131.16 340.63 131.16 347.88"/><polygon class="cls-19" points="330.42 350.46 370.25 372.13 370.25 347.88 330.42 326.21 330.42 350.46"/><polygon class="cls-20" points="131.17 372.13 171 350.46 171 326.21 131.17 347.88 131.17 372.13"/><polygon class="cls-21" points="330.42 269.21 370.25 290.88 370.25 283.63 330.42 261.96 330.42 269.21"/><polygon class="cls-22" points="131.16 290.88 171 269.21 171 261.96 131.16 283.63 131.16 290.88"/><polygon class="cls-23" points="330.42 293.46 370.25 315.13 370.25 290.88 330.42 269.21 330.42 293.46"/><polygon class="cls-24" points="131.17 315.13 171 293.46 171 269.21 131.17 290.88 131.17 315.13"/><polygon class="cls-25" points="330.42 213.21 370.25 234.88 370.25 227.63 330.42 205.96 330.42 213.21"/><polygon class="cls-26" points="131.16 234.88 171 213.21 171 205.96 131.16 227.63 131.16 234.88"/><polygon class="cls-27" points="330.42 237.46 370.25 259.13 370.25 234.88 330.42 213.21 330.42 237.46"/><polygon class="cls-28" points="131.17 259.13 171 237.46 171 213.21 131.17 234.88 131.17 259.13"/><polygon class="cls-29" points="171 155.01 171 155.01 171 142.25 171 155.01"/><path class="cls-29" d="M361.62,175.84l-15.37-15.37v-18.3h-16V419L317,429.63l21.2,11,8.09-6.55V204.66l15.37-15.38A9.51,9.51,0,0,0,361.62,175.84ZM346.25,189.1V176l6.6,6.6Z"/><path class="cls-29" d="M171,216.31V142.25H155v18.3l-15.38,15.38a9.51,9.51,0,0,0,0,13.43L155,204.74V434.13l8.08,6.54,21.2-10.95L171,419.13Zm-16-27.12-6.6-6.48,6.6-6.6Z"/><path class="cls-29" d="M330,166.13V155c-.3,0-.59,0-.88,0H171.87c-.28,0-.58,0-.87,0v11.12a3.45,3.45,0,0,1,.87-.17H329.12A3.44,3.44,0,0,1,330,166.13Z"/><polygon class="cls-29" points="330 142.25 330 155.01 330 155.01 330 142.25"/><path class="cls-30" d="M360.37,147.93,340.84,128.4A16.64,16.64,0,0,0,330.13,124H256V98.88h37a14.35,14.35,0,0,0,13.11-9.47l15.81-47.78c1.79-5.4-.78-8.19-2-9.14s-4.47-2.83-9.34.1l-28.22,17h0a.58.58,0,0,1-.75-.18l-23.32-38.1a8.82,8.82,0,0,0-15.64,0l-23.32,38.1a.58.58,0,0,1-.75.18l-28.22-17c-4.87-2.94-8.16-1-9.34-.1s-3.76,3.74-2,9.14l15.81,47.78A14.35,14.35,0,0,0,208,98.88h37V124H170.87a16.64,16.64,0,0,0-10.71,4.44l-19.53,19.53a9.49,9.49,0,0,0,0,13.43l19.5,19.51a16.64,16.64,0,0,0,10.72,4.44h159.3a16.64,16.64,0,0,0,10.72-4.44l19.5-19.51A9.49,9.49,0,0,0,360.37,147.93Zm-155-62-13-39.37L212.94,59a11.57,11.57,0,0,0,15.8-3.86L250.5,19.58l21.76,35.55A11.57,11.57,0,0,0,288.06,59L308.7,46.58,295.66,86A3.51,3.51,0,0,1,293,87.88H208A3.51,3.51,0,0,1,205.34,86Zm127.75,87.14a6.09,6.09,0,0,1-2.94,1.22H170.85a6.09,6.09,0,0,1-2.94-1.22l-18.45-18.44,18.47-18.47a6,6,0,0,1,2.94-1.22H251.5v-5.5h0V135h78.63a6,6,0,0,1,2.93,1.22l18.48,18.47Z"/><polygon class="cls-31" points="250.49 142.24 170.99 142.24 170.99 419.12 250.49 482.49 329.99 419.12 329.99 142.24 250.49 142.24"/><polygon class="cls-32" points="250.5 208.5 198.63 166 198.63 178 250.5 221 302.38 178 302.38 166 250.5 208.5"/><polygon class="cls-32" points="198.63 393 198.63 405 250.5 448 302.38 405 302.38 393 250.5 435.5 198.63 393"/><polygon class="cls-33" points="302.38 166 198.63 166 250.5 208.5 302.38 166"/><polygon class="cls-34" points="198.63 371.5 198.63 393 250.5 435.5 302.38 393 302.38 371.5 250.5 414 198.63 371.5"/><polygon class="cls-32" points="198.63 337 198.63 349 250.5 392 302.38 349 302.38 337 250.5 379.5 198.63 337"/><polygon class="cls-35" points="198.63 315.5 198.63 337 250.5 379.5 302.38 337 302.38 315.5 250.5 358 198.63 315.5"/><polygon class="cls-32" points="198.63 279 198.63 291 250.5 334 302.38 291 302.38 279 250.5 321.5 198.63 279"/><polygon class="cls-36" points="198.63 257.5 198.63 279 250.5 321.5 302.38 279 302.38 257.5 250.5 300 198.63 257.5"/><polygon class="cls-32" points="198.63 223 198.63 235 250.5 278 302.38 235 302.38 223 250.5 265.5 198.63 223"/><polygon class="cls-37" points="198.63 201.5 198.63 223 250.5 265.5 302.38 223 302.38 201.5 250.5 244 198.63 201.5"/><g id="Position_1_copy" data-name="Position_1 copy"><g class="cls-38"><polygon class="cls-39" points="77.3 151.28 250.5 51.28 423.7 151.28 423.7 351.28 250.5 451.28 77.3 351.28 77.3 151.28"/><polygon class="cls-39" points="108.47 333.28 250.5 251.28 392.53 333.28 392.53 333.28 250.5 415.28 108.47 333.28 108.47 333.28"/></g><rect class="cls-40" x="0.5" y="0.5" width="500" height="500"/><polygon class="cls-41" points="318 412.31 318 214.14 250.5 214.14 183 214.14 183 412.31 250.5 466.28 318 412.31"/><polygon points="330.42 385.38 330 142.25 250.5 142.6 171 142.25 171 385.71 250.5 448.89 330.42 385.38"/><polygon class="cls-42" points="249.58 185.81 263.31 228.05 307.73 228.05 271.79 254.16 285.52 296.41 249.58 270.3 213.64 296.41 227.37 254.16 191.43 228.05 235.85 228.05 249.58 185.81"/><polygon class="cls-30" points="170.99 348.1 250.5 411.28 330.42 347.77 330.25 357.91 250.5 421.28 170.99 358.1 170.99 348.1"/><polygon class="cls-30" points="170.99 328.1 250.5 391.28 330.25 327.91 330.33 337.84 250.5 401.28 171 338.1 170.99 328.1"/><polygon class="cls-30" points="171 308.1 250.5 371.28 330.25 307.91 330.25 317.91 250.5 381.28 170.99 318.1 171 308.1"/><polygon class="cls-30" points="289.48 350.31 250.5 320.27 211.52 350.31 211.52 340.31 250.5 310.27 289.48 340.31 289.48 350.31"/></g></g></g></svg>